<?xml version="1.0" standalone="no"?>
<!DOCTYPE svg PUBLIC "-//W3C//DTD SVG 20010904//EN"
 "http://www.w3.org/TR/2001/REC-SVG-20010904/DTD/svg10.dtd">
<svg version="1.0" xmlns="http://www.w3.org/2000/svg"
 width="350.000000pt" height="204.000000pt" viewBox="0 0 350.000000 204.000000"
 preserveAspectRatio="xMidYMid meet">

<g transform="translate(0.000000,204.000000) scale(0.100000,-0.100000)"
fill="#000000" stroke="none">
<path d="M2940 1849 c-53 -13 -120 -57 -150 -99 -32 -44 -60 -137 -60 -196 l0
-53 -52 -3 -52 -3 -1 -67 -2 -67 51 -3 51 -3 3 -285 2 -286 103 1 102 0 5 285
5 285 53 3 53 3 -3 67 -3 67 -50 5 -50 5 1 53 c3 94 55 136 162 130 l57 -3 2
77 c1 44 -3 81 -9 84 -18 12 -172 13 -218 3z"/>
<path d="M1730 1513 c-79 -9 -133 -27 -185 -64 -31 -21 -60 -39 -65 -39 -5 0
-10 19 -12 43 l-3 42 -103 0 -103 0 -2 -353 c-2 -408 -17 -364 123 -359 l85 3
3 242 c2 232 3 243 24 267 12 14 25 25 29 25 5 0 25 11 45 25 28 19 50 25 89
25 47 0 57 -4 96 -39 l44 -39 5 -252 5 -253 100 -1 100 -1 5 231 c5 247 3 232
55 289 35 38 92 65 138 65 54 0 82 -15 118 -62 24 -32 24 -37 29 -278 l5 -245
100 0 100 0 -1 265 c0 299 -5 321 -78 391 -38 35 -55 43 -146 63 -95 21 -188
-10 -279 -93 -29 -27 -58 -48 -65 -45 -6 2 -18 17 -27 33 -9 15 -32 40 -52 55
-40 30 -138 63 -177 59z"/>
<path d="M438 1495 c-2 -3 16 -49 42 -103 26 -53 51 -108 55 -121 4 -14 33
-79 64 -145 64 -134 133 -288 148 -326 10 -23 15 -25 69 -23 33 1 62 2 65 2 4
1 14 18 22 39 8 20 28 66 45 102 16 36 48 108 72 160 23 52 57 127 75 165 53
111 115 247 115 251 0 2 -52 4 -115 4 -101 0 -116 -2 -121 -17 -3 -10 -20 -56
-39 -103 -18 -47 -45 -119 -61 -162 -46 -126 -61 -134 -89 -45 -17 53 -21 66
-48 127 -17 38 -61 154 -71 183 -5 15 -19 17 -114 17 -60 0 -111 -2 -114 -5z"/>
<path d="M675 518 c-3 -8 -4 -70 -3 -139 l3 -124 78 1 c88 2 119 14 146 58 41
67 22 160 -40 192 -44 23 -177 32 -184 12z m180 -58 c34 -32 35 -97 1 -137
-21 -24 -31 -27 -82 -28 l-59 0 -3 99 -3 98 60 -4 c46 -3 67 -10 86 -28z"/>
<path d="M1155 518 c-3 -8 -4 -70 -3 -139 3 -102 6 -124 18 -124 13 0 15 22
15 134 0 99 -3 135 -12 138 -7 3 -15 -2 -18 -9z"/>
<path d="M1827 523 c-4 -3 -7 -64 -7 -134 0 -128 4 -143 38 -132 9 3 12 39 12
133 0 107 -3 129 -16 134 -19 7 -19 7 -27 -1z"/>
<path d="M2074 519 c-10 -17 7 -27 51 -31 l40 -3 5 -115 c3 -63 8 -114 13
-112 4 1 12 2 17 2 6 0 10 45 10 115 l0 115 38 0 c20 0 44 5 52 10 13 9 13 11
0 20 -21 14 -217 13 -226 -1z"/>
<path d="M2542 508 c-6 -13 -30 -66 -53 -118 -22 -52 -45 -100 -51 -107 -5 -7
-7 -17 -3 -23 12 -19 35 -10 47 18 21 49 38 62 82 62 50 0 59 -6 77 -47 14
-34 37 -49 50 -36 4 4 2 22 -6 38 -7 17 -30 65 -50 109 -20 43 -40 89 -45 102
-12 30 -33 31 -48 2z m43 -88 c21 -41 19 -50 -14 -50 -38 0 -43 9 -28 49 14
39 22 39 42 1z"/>
<path d="M2915 521 c-10 -17 -8 -252 3 -263 5 -5 40 -8 78 -6 53 2 69 6 69 18
0 11 -16 16 -60 20 l-60 5 -3 110 c-3 104 -11 141 -27 116z"/>
<path d="M1404 484 c-29 -30 -34 -42 -34 -85 0 -61 32 -116 73 -124 15 -3 40
-7 55 -10 20 -4 36 1 55 15 38 30 33 46 -7 21 -48 -30 -91 -27 -126 7 -56 56
-46 147 21 186 35 21 81 16 111 -11 10 -9 21 -13 25 -9 16 16 -42 46 -91 46
-43 0 -53 -4 -82 -36z"/>
<path d="M1557 404 c-17 -17 -4 -24 44 -24 36 0 49 4 47 13 -5 13 -79 22 -91
11z"/>
</g>
</svg>
